<svg id="Layer_1" data-name="Layer 1" xmlns="http://www.w3.org/2000/svg" viewBox="0 0 512 512"><defs><style>.cls-1{fill:#231f20;}.cls-2{fill:#fdb913;}.cls-3{fill:#fff;}</style></defs><title>logo</title><path id="Path" class="cls-1" d="M416.14,373.86v47.28a22.59,22.59,0,0,1-.15,2.47c70.16,1.79,92.7-51.76,92.7-51.76-34.61-14.06-68.93-7-92.55,2"/><path id="Path-2" data-name="Path" class="cls-2" d="M416.38,380.63v41.22a22.4,22.4,0,0,1-1.67,8.44c48.64,34.63,97.29,7.76,97.29,7.76-19.16-42.37-71.64-53.61-95.61-57.42"/><polygon id="Path-3" data-name="Path" class="cls-3" points="78.19 146.07 78.19 240.43 90.77 240.43 90.77 303.34 78.19 303.34 78.19 381.97 411.56 381.97 411.56 146.07 78.19 146.07"/><path id="Path-4" data-name="Path" class="cls-1" d="M0,311.74S62.91,247,66.74,146.9H211.5s6.67,157.69-95.27,187.71c0,0,22.39-18.58,6.67-69.56,0,0-2.44,64.44-80,82.9,0,0,38.59-40.5,40-74.32,0,0-27.16,37.64-82.89,38.11"/><path id="Path-5" data-name="Path" class="cls-1" d="M410.17,140.23V377.48H80.53V311.74H74.34V425.12A22.92,22.92,0,0,0,97.2,448H393.49a22.93,22.93,0,0,0,22.87-22.87V140.23Z"/><path id="Path-6" data-name="Path" class="cls-2" d="M416.36,146.9V90.69A26.82,26.82,0,0,0,389.68,64H93.39A26.76,26.76,0,0,0,66.74,90.69V146.9Z"/><path id="Path-7" data-name="Path" class="cls-1" d="M279,230.93a34.92,34.92,0,0,0,69.06-7.42,34.2,34.2,0,0,0-.66-6.7Z"/><path id="Path-8" data-name="Path" class="cls-1" d="M289.33,212.33l61.29-12.71s11.11-3.17,21,3.51a15.3,15.3,0,0,1-9.52,7.3l-85.43,16.2h-3.82l-1.9-5.72,3.82-.32L274.4,215,267,204.79l-1.55-5.92,4.17-.89Z"/><path id="Path-9" data-name="Path" class="cls-1" d="M265.75,338.42H205.81V330.8h59.36c2.44-.41,21.86-3.88,38.27-14.63l4.18,6.38c-18.91,12.39-40.71,15.7-41.61,15.83Z"/></svg>
